<?xml version="1.0" encoding="UTF-8" standalone="no"?>
<svg width="1440" height="800" viewBox="0 0 1440 800" fill="none" xmlns="http://www.w3.org/2000/svg">
  <rect width="1440" height="800" fill="#0F1720"/>
  <path opacity="0.15" d="M0 0H1440V800H0V0Z" fill="url(#paint0_linear)"/>
  <!-- Farm field pattern -->
  <g opacity="0.12">
    <path d="M-100 700C150 700 150 740 400 740C650 740 650 700 900 700C1150 700 1150 740 1400 740C1650 740 1650 700 1900 700" stroke="#4CAF50" stroke-width="2"/>
    <path d="M-100 720C150 720 150 760 400 760C650 760 650 720 900 720C1150 720 1150 760 1400 760C1650 760 1650 720 1900 720" stroke="#4CAF50" stroke-width="2"/>
    <path d="M-100 740C150 740 150 780 400 780C650 780 650 740 900 740C1150 740 1150 780 1400 780C1650 780 1650 740 1900 740" stroke="#4CAF50" stroke-width="2"/>
    <path d="M-100 760C150 760 150 800 400 800C650 800 650 760 900 760C1150 760 1150 800 1400 800C1650 800 1650 760 1900 760" stroke="#4CAF50" stroke-width="2"/>
  </g>
  <!-- Plants and agriculture elements -->
  <g opacity="0.15">
    <circle cx="200" cy="600" r="50" fill="#4CAF50"/>
    <circle cx="1200" cy="650" r="60" fill="#4CAF50"/>
    <circle cx="400" cy="700" r="40" fill="#4CAF50"/>
    <circle cx="900" cy="680" r="55" fill="#4CAF50"/>
    <circle cx="1300" cy="720" r="45" fill="#4CAF50"/>
    <circle cx="100" cy="720" r="35" fill="#4CAF50"/>
    <circle cx="600" cy="650" r="50" fill="#4CAF50"/>
    <circle cx="1000" cy="730" r="30" fill="#4CAF50"/>
  </g>
  <!-- Subtle grain texture -->
  <filter id="noise">
    <feTurbulence type="fractalNoise" baseFrequency="0.8" numOctaves="4" stitchTiles="stitch" result="turbulence"/>
    <feColorMatrix type="matrix" values="0 0 0 0 0.2 0 0 0 0 0.7 0 0 0 0 0.3 0 0 0 0.05 0" result="colormatrix"/>
  </filter>
  <rect width="100%" height="100%" filter="url(#noise)" opacity="0.05"/>
  <!-- Gradient definitions -->
  <defs>
    <linearGradient id="paint0_linear" x1="720" y1="0" x2="720" y2="800" gradientUnits="userSpaceOnUse">
      <stop stop-color="#4CAF50" stop-opacity="0.3"/>
      <stop offset="1" stop-color="#4CAF50" stop-opacity="0"/>
    </linearGradient>
  </defs>
</svg>
